<svg className="icon hover:stroke-[#CF3D0C]" width="20" height="20" viewBox="0 0 20 20" fill="none" xmlns="http://www.w3.org/2000/svg">
    <g clip-path="url(#clip0_3344_1732)">
        <path d="M10.0026 12.5C11.3833 12.5 12.5026 11.3807 12.5026 9.99998C12.5026 8.61927 11.3833 7.49998 10.0026 7.49998C8.62189 7.49998 7.5026 8.61927 7.5026 9.99998C7.5026 11.3807 8.62189 12.5 10.0026 12.5Z" stroke="#667085" stroke-width="1.66667" stroke-linecap="round" stroke-linejoin="round"/>
        <path d="M16.1693 12.5C16.0583 12.7513 16.0252 13.0301 16.0743 13.3005C16.1233 13.5708 16.2522 13.8202 16.4443 14.0166L16.4943 14.0666C16.6492 14.2214 16.7722 14.4052 16.856 14.6076C16.9399 14.8099 16.9831 15.0268 16.9831 15.2458C16.9831 15.4648 16.9399 15.6817 16.856 15.884C16.7722 16.0864 16.6492 16.2702 16.4943 16.425C16.3395 16.5799 16.1557 16.7029 15.9533 16.7867C15.751 16.8706 15.5341 16.9138 15.3151 16.9138C15.0961 16.9138 14.8792 16.8706 14.6769 16.7867C14.4745 16.7029 14.2907 16.5799 14.1359 16.425L14.0859 16.375C13.8895 16.1829 13.6401 16.054 13.3698 16.005C13.0994 15.956 12.8206 15.989 12.5693 16.1C12.3228 16.2056 12.1126 16.381 11.9645 16.6046C11.8165 16.8282 11.737 17.0902 11.7359 17.3583V17.5C11.7359 17.942 11.5603 18.3659 11.2478 18.6785C10.9352 18.991 10.5113 19.1666 10.0693 19.1666C9.62724 19.1666 9.20332 18.991 8.89076 18.6785C8.5782 18.3659 8.4026 17.942 8.4026 17.5V17.425C8.39615 17.1491 8.30687 16.8816 8.14636 16.6572C7.98586 16.4328 7.76155 16.2619 7.5026 16.1666C7.25126 16.0557 6.97244 16.0226 6.70211 16.0716C6.43178 16.1207 6.18234 16.2495 5.98594 16.4416L5.93594 16.4916C5.78115 16.6466 5.59733 16.7695 5.395 16.8534C5.19267 16.9373 4.9758 16.9805 4.75677 16.9805C4.53774 16.9805 4.32087 16.9373 4.11854 16.8534C3.91621 16.7695 3.73239 16.6466 3.5776 16.4916C3.42264 16.3369 3.29971 16.153 3.21584 15.9507C3.13196 15.7484 3.08879 15.5315 3.08879 15.3125C3.08879 15.0935 3.13196 14.8766 3.21584 14.6742C3.29971 14.4719 3.42264 14.2881 3.5776 14.1333L3.6276 14.0833C3.81972 13.8869 3.94859 13.6375 3.99761 13.3671C4.04662 13.0968 4.01353 12.818 3.9026 12.5666C3.79697 12.3202 3.62157 12.11 3.39799 11.9619C3.17442 11.8138 2.91243 11.7344 2.64427 11.7333H2.5026C2.06058 11.7333 1.63665 11.5577 1.32409 11.2452C1.01153 10.9326 0.835938 10.5087 0.835938 10.0666C0.835938 9.62462 1.01153 9.2007 1.32409 8.88813C1.63665 8.57557 2.06058 8.39998 2.5026 8.39998H2.5776C2.85343 8.39353 3.12094 8.30424 3.34535 8.14374C3.56977 7.98323 3.7407 7.75893 3.83594 7.49998C3.94687 7.24863 3.97996 6.96982 3.93094 6.69949C3.88193 6.42916 3.75305 6.17971 3.56094 5.98331L3.51094 5.93331C3.35598 5.77852 3.23304 5.59471 3.14917 5.39238C3.0653 5.19005 3.02213 4.97317 3.02213 4.75415C3.02213 4.53512 3.0653 4.31824 3.14917 4.11591C3.23304 3.91358 3.35598 3.72977 3.51094 3.57498C3.66573 3.42002 3.84954 3.29709 4.05187 3.21321C4.2542 3.12934 4.47108 3.08617 4.6901 3.08617C4.90913 3.08617 5.12601 3.12934 5.32834 3.21321C5.53067 3.29709 5.71448 3.42002 5.86927 3.57498L5.91927 3.62498C6.11567 3.81709 6.36512 3.94597 6.63545 3.99498C6.90578 4.044 7.18459 4.01091 7.43594 3.89998H7.5026C7.74908 3.79434 7.95928 3.61894 8.10735 3.39537C8.25541 3.17179 8.33487 2.9098 8.33594 2.64165V2.49998C8.33594 2.05795 8.51153 1.63403 8.82409 1.32147C9.13665 1.00891 9.56058 0.833313 10.0026 0.833313C10.4446 0.833313 10.8686 1.00891 11.1811 1.32147C11.4937 1.63403 11.6693 2.05795 11.6693 2.49998V2.57498C11.6703 2.84313 11.7498 3.10513 11.8979 3.3287C12.0459 3.55228 12.2561 3.72768 12.5026 3.83331C12.7539 3.94424 13.0328 3.97733 13.3031 3.92832C13.5734 3.8793 13.8229 3.75043 14.0193 3.55831L14.0693 3.50831C14.2241 3.35335 14.4079 3.23042 14.6102 3.14655C14.8125 3.06267 15.0294 3.0195 15.2484 3.0195C15.4675 3.0195 15.6843 3.06267 15.8867 3.14655C16.089 3.23042 16.2728 3.35335 16.4276 3.50831C16.5826 3.6631 16.7055 3.84692 16.7894 4.04925C16.8732 4.25158 16.9164 4.46845 16.9164 4.68748C16.9164 4.90651 16.8732 5.12338 16.7894 5.32571C16.7055 5.52804 16.5826 5.71186 16.4276 5.86665L16.3776 5.91665C16.1855 6.11305 16.0566 6.36249 16.0076 6.63282C15.9586 6.90315 15.9917 7.18197 16.1026 7.43331V7.49998C16.2082 7.74645 16.3836 7.95666 16.6072 8.10472C16.8308 8.25279 17.0928 8.33224 17.3609 8.33331H17.5026C17.9446 8.33331 18.3686 8.50891 18.6811 8.82147C18.9937 9.13403 19.1693 9.55795 19.1693 9.99998C19.1693 10.442 18.9937 10.8659 18.6811 11.1785C18.3686 11.4911 17.9446 11.6666 17.5026 11.6666H17.4276C17.1594 11.6677 16.8975 11.7472 16.6739 11.8952C16.4503 12.0433 16.2749 12.2535 16.1693 12.5Z" stroke="#667085" stroke-width="1.66667" stroke-linecap="round" stroke-linejoin="round"/>
    </g>
    <defs>
        <clipPath id="clip0_3344_1732">
            <rect width="20" height="20" fill="white"/>
        </clipPath>
    </defs>
</svg>
