<svg width="48" height="48" viewBox="0 0 48 48" fill="none" xmlns="http://www.w3.org/2000/svg">
<g id="User" clip-path="url(#clip0_3560_107276)">
<g id="Group">
<g id="Group_2">
<path id="Vector" d="M24 48C37.2548 48 48 37.2548 48 24C48 10.7452 37.2548 0 24 0C10.7452 0 0 10.7452 0 24C0 37.2548 10.7452 48 24 48Z" fill="#F4F4F4"/>
<g id="Clip path group">
<mask id="mask0_3560_107276" style="mask-type:luminance" maskUnits="userSpaceOnUse" x="0" y="0" width="48" height="48">
<g id="circle_1_">
<path id="Vector_2" d="M24 48C37.2548 48 48 37.2548 48 24C48 10.7452 37.2548 0 24 0C10.7452 0 0 10.7452 0 24C0 37.2548 10.7452 48 24 48Z" fill="white"/>
</g>
</mask>
<g mask="url(#mask0_3560_107276)">
<g id="Group_3">
<path id="Vector_3" d="M30.24 34.5113C30.24 36.4313 32.496 37.0073 33.648 37.2953C37.296 38.2553 44.592 40.1273 44.592 40.1273C46.128 40.6553 47.328 41.8073 48 43.2953V47.9993H0V43.2953C0.624 41.8073 1.872 40.6553 3.408 40.1273C3.408 40.1273 10.704 38.2553 14.352 37.2953C15.504 37.0073 17.76 36.4313 17.76 34.5113C17.76 32.5913 17.76 29.2793 17.76 29.2793H30.24C30.24 29.2793 30.24 32.5913 30.24 34.5113Z" fill="#DEDEDE"/>
<g id="Clip path group_2">
<mask id="mask1_3560_107276" style="mask-type:luminance" maskUnits="userSpaceOnUse" x="0" y="29" width="48" height="19">
<g id="shoulders_1_">
<path id="Vector_4" d="M30.24 34.5113C30.24 36.4313 32.496 37.0073 33.648 37.2953C37.296 38.2553 44.592 40.1273 44.592 40.1273C46.128 40.6553 47.328 41.8073 48 43.2953V47.9993H0V43.2953C0.624 41.8073 1.872 40.6553 3.408 40.1273C3.408 40.1273 10.704 38.2553 14.352 37.2953C15.504 37.0073 17.76 36.4313 17.76 34.5113C17.76 32.5913 17.76 29.2793 17.76 29.2793H30.24C30.24 29.2793 30.24 32.5913 30.24 34.5113Z" fill="white"/>
</g>
</mask>
<g mask="url(#mask1_3560_107276)">
<path id="head-shadow" d="M24.096 5.2793C24.144 5.2793 24.144 5.2793 24.192 5.2793C25.776 5.2793 28.128 5.3753 29.664 6.2393C31.248 7.1513 33.168 8.9273 33.744 12.0473C34.896 18.6233 32.736 29.0393 30.72 32.3993C28.8 35.6153 26.016 36.8153 24.24 36.9113H24.192C24.144 36.9113 24.144 36.9113 24.096 36.9113C24.048 36.9113 24.048 36.9113 24 36.9113H23.952C22.176 36.8153 19.392 35.6153 17.472 32.3993C15.456 29.0393 13.296 18.6233 14.448 12.0473C15.024 8.9273 16.944 7.1513 18.528 6.2393C20.064 5.3753 22.416 5.2793 24 5.2793C24.048 5.2793 24.048 5.2793 24.096 5.2793Z" fill="#E6E6E6"/>
</g>
</g>
</g>
</g>
</g>
</g>
<path id="head" d="M23.808 7.67969C32.976 7.67969 33.744 14.3037 33.792 14.9277C34.32 20.6397 32.352 28.4157 30.528 31.1037C28.608 33.9357 25.824 34.9917 24.048 35.0877C23.952 35.0877 23.952 35.0877 23.904 35.0877C23.856 35.0877 23.856 35.0877 23.808 35.0877C21.984 34.9437 19.2 33.8877 17.28 31.0557C15.456 28.3677 13.488 20.5917 14.016 14.8317C14.064 14.2557 14.64 7.67969 23.808 7.67969Z" fill="#DCDCDC"/>
</g>
</g>
<defs>
<clipPath id="clip0_3560_107276">
<rect width="48" height="48" fill="white"/>
</clipPath>
</defs>
</svg>
